<svg xmlns="http://www.w3.org/2000/svg" xmlns:xlink="http://www.w3.org/1999/xlink" width="251.182" height="126.717" viewBox="0 0 251.182 126.717">
  <defs>
    <clipPath id="clip-path">
      <rect id="Rectangle_2218" data-name="Rectangle 2218" width="251.182" height="126.717" transform="translate(0 0)" fill="none"/>
    </clipPath>
  </defs>
  <g id="Group_72" data-name="Group 72" transform="translate(0 0)">
    <g id="Group_71" data-name="Group 71" clip-path="url(#clip-path)">
      <path id="Path_15" data-name="Path 15" d="M46.941,59.887A100.694,100.694,0,0,1,57.957,49.735l.11-2.729A139.2,139.2,0,0,0,43.782,59.989ZM35.1,76.07c-5.208,9.44-7.182,18.705-3.532,25.867,11.386,22.346,64.268,22.024,115.093.739a202.939,202.939,0,0,0,34.383-18.3c29.782-19.953,41.325-42.46,32.8-59.183C202.456,2.846,156.246.475,105.423,21.76Q97.259,25.178,89.786,29l-4.271.031a251.031,251.031,0,0,1,23.528-11.5C166.82-6.668,224.153-5.693,237.1,19.709c9.718,19.072-5.084,45.715-39.146,68.439a244.331,244.331,0,0,1-39.873,21.285c-57.778,24.2-115.671,22.7-128.614-2.7-4.584-8.994-3.8-19.539,2.276-30.7Z" fill="#fff"/>
      <path id="Path_16" data-name="Path 16" d="M51.284,58.4C47.11,74.169,34.4,80.384,21.595,80.384c-18.1,0-24.129-11-20.661-27.322C3.843,37.024,15.739,26.168,33.19,26.168c13.022,0,22.927,5.285,19.551,22.994H33.977c1.19-8.424-.712-9.567-3.219-9.533-5.288,0-6.937,5.4-8.689,13.646-1.662,7.818-2.472,13.648,2.673,13.648,2.644,0,4.762-1.564,7.35-8.524Z" fill="#fff"/>
      <path id="Path_17" data-name="Path 17" d="M49.675,79.058h25.41c15.874,0,28.082-9.633,31.393-25.211,3.251-15.293-.981-26.355-21.645-26.355h-24.2ZM78.133,39.2h2c3.283,0,4.953,1.215,5.8,3.287.9,2.145.555,5.789-.509,10.791s-2.266,8.648-4.078,10.791a8.691,8.691,0,0,1-7.194,3.287h-2Z" fill="#fff"/>
      <path id="Path_18" data-name="Path 18" d="M111,27.492H129.29l-2.521,32.363h.143l11.665-32.363h21.147l-2.092,32.363h.142l11.237-32.363H187.3L165.2,79.048H143.05L145.373,45.6h-.142l-11.9,33.449H111.188Z" fill="#fff"/>
      <path id="Path_19" data-name="Path 19" d="M247.37,34.343a3.151,3.151,0,1,1,3.141-3.162,3.159,3.159,0,0,1-3.141,3.162m0,.672a3.823,3.823,0,1,0-3.833-3.834,3.813,3.813,0,0,0,3.833,3.834m-.224-3.579c.243.021.478,0,.65.183a1.7,1.7,0,0,1,.255.955c.03.264.1.549.153.8h.9a6.409,6.409,0,0,1-.266-1.3c-.07-.488-.142-.762-.761-.884v-.021a1.037,1.037,0,0,0,.915-1.047c0-1.017-.855-1.24-1.678-1.24h-1.454v4.493h.7V31.436Zm-.589-.7V29.586h.844c.558,0,.71.173.71.507s-.152.621-.813.641Z" fill="#fff"/>
    </g>
  </g>
</svg>
